<svg width="50" height="50" viewBox="0 0 50 50" fill="none" xmlns="http://www.w3.org/2000/svg">
<path d="M25 6.25C35.3125 6.25 43.75 14.6875 43.75 25C43.75 35.3125 35.3125 43.75 25 43.75C14.6875 43.75 6.25 35.3125 6.25 25C6.25 14.6875 14.6875 6.25 25 6.25ZM25 3.125C12.9688 3.125 3.125 12.9688 3.125 25C3.125 37.0312 12.9688 46.875 25 46.875C37.0312 46.875 46.875 37.0312 46.875 25C46.875 12.9688 37.0312 3.125 25 3.125Z" fill="black"/>
<path d="M37.5 25C37.5 24.1371 36.8004 23.4375 35.9375 23.4375H28.5625C27.4579 23.4375 26.5625 22.5421 26.5625 21.4375V14.0625C26.5625 13.1996 25.8629 12.5 25 12.5C24.1371 12.5 23.4375 13.1996 23.4375 14.0625V21.4375C23.4375 22.5421 22.5421 23.4375 21.4375 23.4375H14.0625C13.1996 23.4375 12.5 24.1371 12.5 25C12.5 25.8629 13.1996 26.5625 14.0625 26.5625H21.4375C22.5421 26.5625 23.4375 27.4579 23.4375 28.5625V35.9375C23.4375 36.8004 24.1371 37.5 25 37.5C25.8629 37.5 26.5625 36.8004 26.5625 35.9375V28.5625C26.5625 27.4579 27.4579 26.5625 28.5625 26.5625H35.9375C36.8004 26.5625 37.5 25.8629 37.5 25Z" fill="black"/>
</svg>
