<svg width="26" height="30" viewBox="0 0 26 30" fill="none" xmlns="http://www.w3.org/2000/svg">
<path d="M21.0713 15.854C21.0569 13.3949 22.171 11.5416 24.4209 10.1751C23.1626 8.37227 21.2588 7.38072 18.7493 7.18962C16.3732 7.00213 13.7735 8.57419 12.8216 8.57419C11.8156 8.57419 9.51525 7.25453 7.70523 7.25453C3.9698 7.31222 0 10.2328 0 16.1749C0 17.9308 0.320901 19.7444 0.962703 21.6121C1.82084 24.0712 4.91447 30.0962 8.14151 29.9988C9.82894 29.9592 11.0224 28.8018 13.2182 28.8018C15.3492 28.8018 16.4525 29.9988 18.3346 29.9988C21.5905 29.952 24.3885 24.475 25.2033 22.0088C20.8369 19.9499 21.0713 15.9801 21.0713 15.854ZM17.2818 4.85678C19.1098 2.68619 18.944 0.710309 18.8899 0C17.2746 0.0937464 15.4069 1.09972 14.3432 2.33645C13.1714 3.66332 12.4827 5.30388 12.6305 7.15357C14.3756 7.28698 15.9693 6.38917 17.2818 4.85678Z" fill="black"/>
</svg>
