<svg width="25" height="30" viewBox="0 0 25 30" fill="none" xmlns="http://www.w3.org/2000/svg">
<path fill-rule="evenodd" clip-rule="evenodd" d="M16.8384 0C21.7197 0 24.5201 2.41618 24.5201 6.62541V27.5435C24.5201 28.4214 24.0682 29.2114 23.3084 29.6532C22.5515 30.0964 21.6391 30.1051 20.8735 29.6733L12.2967 24.828L3.64081 29.6834C3.26666 29.8935 2.85653 30 2.44496 30C2.02044 30 1.59591 29.8863 1.21025 29.6589C0.451864 29.2172 0 28.4271 0 27.5507V6.36207C0 2.31832 2.80184 0 7.68744 0H16.8384ZM16.8384 2.15858H7.68744C4.01928 2.15858 2.15858 3.57174 2.15858 6.36207V27.5507C2.15858 27.686 2.23629 27.7594 2.30105 27.7968C2.36581 27.8371 2.46798 27.8659 2.58598 27.7997L11.77 22.6479C12.0981 22.4651 12.4996 22.4637 12.8292 22.6493L21.9341 27.7925C22.0535 27.8616 22.1557 27.8299 22.2205 27.791C22.2852 27.7522 22.3615 27.6788 22.3615 27.5435L22.361 6.46143C22.3501 5.22287 22.1104 2.15858 16.8384 2.15858ZM17.4699 9.68269C18.0656 9.68269 18.5491 10.1662 18.5491 10.762C18.5491 11.3577 18.0656 11.8413 17.4699 11.8413H6.93884C6.34307 11.8413 5.85955 11.3577 5.85955 10.762C5.85955 10.1662 6.34307 9.68269 6.93884 9.68269H17.4699Z" fill="#343434"/>
</svg>
