<svg width="50" height="50" viewBox="0 0 50 50" fill="none" xmlns="http://www.w3.org/2000/svg">
<rect width="50" height="50" rx="10" fill="#343434"/>
<path d="M35.6031 23.5766C34.9522 22.1115 34.0059 20.7965 32.8234 19.7138L31.8477 18.8186C31.8146 18.789 31.7747 18.768 31.7316 18.7575C31.6884 18.7469 31.6434 18.7471 31.6003 18.758C31.5573 18.769 31.5176 18.7903 31.4847 18.8201C31.4518 18.85 31.4268 18.8874 31.4118 18.9292L30.9759 20.1799C30.7043 20.9645 30.2047 21.7659 29.4972 22.5539C29.4502 22.6042 29.3966 22.6176 29.3597 22.621C29.3228 22.6243 29.2658 22.6176 29.2155 22.5707C29.1686 22.5304 29.1451 22.4701 29.1485 22.4097C29.2725 20.3912 28.669 18.1144 27.3478 15.6365C26.2547 13.5777 24.7358 11.9716 22.8379 10.8516L21.4531 10.0368C21.2721 9.92955 21.0407 10.0704 21.0508 10.2816L21.1245 11.8911C21.1748 12.9909 21.0474 13.9633 20.7456 14.7714C20.3768 15.7606 19.847 16.6793 19.1697 17.5042C18.6983 18.0774 18.1641 18.5959 17.577 19.0499C16.163 20.1369 15.0132 21.5297 14.2138 23.1239C13.4164 24.7321 13.001 26.5027 13 28.2977C13 29.8804 13.3118 31.4128 13.9288 32.8579C14.5245 34.2493 15.3842 35.5121 16.4604 36.5765C17.5468 37.6495 18.8075 38.4945 20.2125 39.0813C21.6677 39.6915 23.2101 40 24.8029 40C26.3956 40 27.938 39.6915 29.3932 39.0846C30.7947 38.5013 32.0691 37.6505 33.1453 36.5799C34.2317 35.5069 35.0834 34.2528 35.6769 32.8613C36.2929 31.4201 36.609 29.8685 36.6057 28.3011C36.6057 26.6648 36.2704 25.0754 35.6031 23.5766Z" fill="white"/>
</svg>
