<svg width="28" height="30" viewBox="0 0 28 30" fill="none" xmlns="http://www.w3.org/2000/svg">
<path fill-rule="evenodd" clip-rule="evenodd" d="M19.451 0C24.1883 0 27.3707 3.2441 27.3707 8.07182V21.9282C27.3707 26.7981 24.2863 29.9653 19.5128 29.9955L7.92114 30C3.18383 30 0 26.7559 0 21.9282V8.07182C0 3.2004 3.08438 0.034656 7.85786 0.00602712L19.4495 0H19.451ZM19.451 2.26017L7.86539 2.2662C4.35761 2.28729 2.26017 4.45706 2.26017 8.07182V21.9282C2.26017 25.5671 4.3772 27.7398 7.91964 27.7398L19.5053 27.7353C23.0131 27.7142 25.1105 25.5414 25.1105 21.9282V8.07182C25.1105 4.43295 22.995 2.26017 19.451 2.26017ZM19.1604 20.3019C19.7842 20.3019 20.2905 20.8082 20.2905 21.432C20.2905 22.0558 19.7842 22.5621 19.1604 22.5621H8.28142C7.65761 22.5621 7.15133 22.0558 7.15133 21.432C7.15133 20.8082 7.65761 20.3019 8.28142 20.3019H19.1604ZM19.1604 13.9938C19.7842 13.9938 20.2905 14.5001 20.2905 15.1239C20.2905 15.7477 19.7842 16.2539 19.1604 16.2539H8.28142C7.65761 16.2539 7.15133 15.7477 7.15133 15.1239C7.15133 14.5001 7.65761 13.9938 8.28142 13.9938H19.1604ZM12.4321 7.70025C13.056 7.70025 13.5622 8.20653 13.5622 8.83034C13.5622 9.45414 13.056 9.96042 12.4321 9.96042H8.28096C7.65716 9.96042 7.15088 9.45414 7.15088 8.83034C7.15088 8.20653 7.65716 7.70025 8.28096 7.70025H12.4321Z" fill="#343434"/>
</svg>
