<svg width="29" height="30" viewBox="0 0 29 30" fill="none" xmlns="http://www.w3.org/2000/svg">
<path d="M20.0363 28.4074L20.0363 28.4075H20.0477H22.7065C25.072 28.4075 27.0052 26.5072 27.0052 24.1577V11.9877H27.0052L27.0051 11.9808C26.9932 11.1143 26.5808 10.3037 25.8827 9.76771L16.6891 2.43572L16.6878 2.43469C15.271 1.31243 13.2869 1.31303 11.8667 2.4374L11.8667 2.43739L11.8641 2.43944L2.73453 9.76486C2.01503 10.3141 1.60103 11.125 1.59254 12.0066L1.59251 12.0066V12.0114V24.1577C1.59251 26.5072 3.52571 28.4075 5.89112 28.4075H8.57511C9.21783 28.4075 9.76006 27.895 9.76006 27.2393C9.76006 27.1979 9.76515 27.1528 9.77507 27.1073L9.78657 27.0546V27.0007V22.9622C9.78657 21.5823 10.9191 20.4466 12.3141 20.4364H16.3453C17.7521 20.4364 18.892 21.5732 18.892 22.9622V27.2532C18.892 27.8947 19.4077 28.3931 20.0363 28.4074ZM12.3193 21.5289L12.3166 21.5289C11.5337 21.5332 10.8791 22.1697 10.8791 22.9622V27.2393C10.8791 27.2993 10.8711 27.3495 10.8581 27.3917L10.844 27.4374L10.8388 27.485C10.7157 28.6132 9.74907 29.5 8.57511 29.5H5.89112C2.91441 29.5 0.5 27.0988 0.5 24.1577V12.0042C0.513118 10.7731 1.07892 9.65006 2.05817 8.9085L2.05829 8.90866L2.06928 8.89984L11.1832 1.585C11.1836 1.58468 11.184 1.58437 11.1844 1.58405C13.0098 0.138811 15.5484 0.139309 17.3691 1.58159C17.3693 1.58178 17.3695 1.58197 17.3698 1.58216L26.5505 8.90497L26.5504 8.90507L26.5592 8.91179C27.514 9.63928 28.0806 10.7602 28.0977 11.9757V24.1577C28.0977 27.0988 25.6833 29.5 22.7065 29.5H20.0287C18.76 29.4672 17.7995 28.478 17.7995 27.2532V22.9622C17.7995 22.1608 17.1367 21.5289 16.3453 21.5289L12.3193 21.5289Z" fill="#343434" stroke="#343434"/>
</svg>
