<svg width="28" height="30" viewBox="0 0 28 30" fill="none" xmlns="http://www.w3.org/2000/svg">
<path fill-rule="evenodd" clip-rule="evenodd" d="M14.8651 0C15.9017 0 16.9094 0.425655 17.6319 1.16548C18.3529 1.90966 18.751 2.93036 18.7206 3.96554C18.7235 4.19864 18.8002 4.46793 18.9392 4.70392C19.1694 5.09483 19.5328 5.36991 19.9643 5.48284C20.3957 5.58998 20.8474 5.53207 21.2311 5.30476C23.0843 4.24642 25.4428 4.88056 26.5011 6.71927L27.4031 8.28145C27.4263 8.32344 27.4465 8.36398 27.4639 8.40596C28.4224 10.2172 27.7824 12.4975 26.0016 13.5384C25.7425 13.6876 25.5325 13.896 25.3878 14.148C25.1633 14.5374 25.1011 15.0007 25.214 15.4264C25.3298 15.8607 25.6064 16.2212 25.9958 16.4442C26.8746 16.9495 27.5305 17.8008 27.7926 18.7838C28.0546 19.7655 27.9113 20.831 27.4002 21.7099L26.4389 23.3111C25.3805 25.1296 23.022 25.7594 21.1877 24.6996C20.943 24.5591 20.6607 24.4824 20.3798 24.4752H20.3711C19.9527 24.4752 19.5227 24.6532 19.21 24.9645C18.8929 25.2816 18.7192 25.7044 18.722 26.1532C18.7119 28.28 16.9818 30 14.8651 30H13.051C10.9242 30 9.19403 28.2713 9.19403 26.1445C9.19114 25.8824 9.11585 25.6103 8.97542 25.3743C8.74811 24.9776 8.38037 24.6938 7.95616 24.5809C7.53485 24.4679 7.073 24.5302 6.69367 24.7503C5.78445 25.257 4.71452 25.38 3.7358 25.105C2.75853 24.8284 1.91446 24.1567 1.41931 23.2662L0.514434 21.707C-0.543912 19.8711 0.0858835 17.5185 1.91881 16.4587C2.43857 16.159 2.76143 15.6001 2.76143 15.0007C2.76143 14.4013 2.43857 13.841 1.91881 13.5413C0.0844358 12.4757 -0.543912 10.1173 0.512986 8.28145L1.4946 6.67004C2.53847 4.8545 4.89839 4.21456 6.73855 5.27146C6.98902 5.42059 7.26121 5.49587 7.53774 5.49877C8.43973 5.49877 9.19403 4.7546 9.20851 3.83958C9.20272 2.83046 9.60087 1.86188 10.3262 1.13074C11.0545 0.401042 12.0216 0 13.051 0H14.8651ZM14.8651 2.17171H13.051C12.6022 2.17171 12.1823 2.34689 11.8652 2.66252C11.5496 2.97959 11.3773 3.4009 11.3802 3.84972C11.3498 5.96641 9.61969 7.67048 7.52471 7.67048C6.85293 7.66324 6.20576 7.48226 5.64401 7.14637C4.85496 6.69755 3.82412 6.97408 3.36227 7.77762L2.3821 9.38902C1.93328 10.1679 2.20837 11.1973 3.00756 11.6621C4.19331 12.3483 4.93314 13.6282 4.93314 15.0007C4.93314 16.3732 4.19331 17.6517 3.00466 18.3394C2.20982 18.7998 1.93473 19.8234 2.39513 20.6197L3.3087 22.1949C3.53456 22.6017 3.90375 22.8956 4.33085 23.0158C4.75651 23.1345 5.2256 23.0838 5.6165 22.8667C6.19128 22.5293 6.86017 22.3541 7.53195 22.3541C7.8635 22.3541 8.19505 22.3961 8.51936 22.483C9.49807 22.7465 10.3479 23.4009 10.8518 24.2797C11.179 24.8313 11.36 25.4756 11.3657 26.1329C11.3657 27.074 12.1215 27.8283 13.051 27.8283H14.8651C15.7902 27.8283 16.546 27.0783 16.5503 26.1532C16.5445 25.131 16.9441 24.1595 17.6753 23.4284C18.3963 22.7074 19.404 22.2745 20.4116 22.3035C21.0718 22.3194 21.7074 22.4975 22.2677 22.816C23.0742 23.2778 24.1035 23.0027 24.5697 22.2065L25.5311 20.6037C25.7454 20.2345 25.8076 19.7712 25.6932 19.3441C25.5803 18.917 25.2965 18.5464 24.9143 18.3278C24.0196 17.8124 23.3811 16.9813 23.1161 15.9852C22.8541 15.008 22.9974 13.9409 23.5085 13.0621C23.8415 12.483 24.3294 11.9951 24.9143 11.6592C25.699 11.2002 25.9741 10.1737 25.5181 9.37455C25.4992 9.3427 25.4819 9.3094 25.4674 9.27465L24.619 7.80368C24.1571 7.00014 23.1292 6.72361 22.3227 7.18257C21.4512 7.69799 20.4145 7.84566 19.4184 7.58361C18.4238 7.3259 17.5899 6.6961 17.0701 5.80715C16.7371 5.25119 16.5561 4.60402 16.5503 3.94527C16.5634 3.45012 16.3896 3.00565 16.074 2.67989C15.7598 2.35558 15.3183 2.17171 14.8651 2.17171ZM13.9644 10.0971C16.6675 10.0971 18.8667 12.2978 18.8667 15.0009C18.8667 17.7039 16.6675 19.9017 13.9644 19.9017C11.2614 19.9017 9.06214 17.7039 9.06214 15.0009C9.06214 12.2978 11.2614 10.0971 13.9644 10.0971ZM13.9644 12.2689C12.4587 12.2689 11.2338 13.4951 11.2338 15.0009C11.2338 16.5066 12.4587 17.73 13.9644 17.73C15.4701 17.73 16.695 16.5066 16.695 15.0009C16.695 13.4951 15.4701 12.2689 13.9644 12.2689Z" fill="#343434"/>
</svg>
