<svg width="50" height="50" viewBox="0 0 50 50" fill="none" xmlns="http://www.w3.org/2000/svg">
<rect width="50" height="50" rx="10" fill="#1570EE"/>
<path d="M40.8077 36.2482C41.3368 35.5471 41.1974 34.5499 40.4963 34.0208L39.626 33.3639L42.1669 29.9973C42.5474 29.4932 42.4471 28.7761 41.943 28.3956C41.2654 27.8842 41.1307 26.9203 41.6421 26.2427C42.0226 25.7385 41.9223 25.0214 41.4182 24.641L40.5267 23.9681C39.5302 23.216 38.1126 23.4141 37.3606 24.4106L33.8776 29.0254L19.2988 18.0223L22.7817 13.4075C23.5338 12.411 23.3356 10.9935 22.3391 10.2414C21.3426 9.48934 19.9251 9.68748 19.173 10.684L18.9136 11.0278C17.6386 10.2244 15.939 10.519 15.0147 11.7437L13.5504 13.6839L12.6801 13.027C11.979 12.4979 10.9817 12.6373 10.4526 13.3384C9.9235 14.0395 10.0629 15.0367 10.764 15.5658L11.6343 16.2227L10.17 18.1628C9.24564 19.3876 9.4284 21.1028 10.5505 22.1086L10.2911 22.4524C9.53897 23.4489 9.7371 24.8664 10.7336 25.6185C11.7301 26.3706 13.1476 26.1724 13.8997 25.1759L17.3826 20.5611L31.9615 31.5643L28.4786 36.1791C27.7265 37.1756 27.9246 38.5931 28.9211 39.3452L29.8127 40.018C30.3168 40.3985 31.0339 40.2983 31.4144 39.7942C31.9258 39.1165 32.8897 38.9818 33.5673 39.4932C34.0714 39.8737 34.7885 39.7735 35.169 39.2693L37.7099 35.9027L38.5802 36.5596C39.2813 37.0887 40.2785 36.9493 40.8077 36.2482Z" fill="white" stroke="white" stroke-width="0.5"/>
</svg>
